<svg width="1200" height="630" viewBox="0 0 1200 630" fill="none" xmlns="http://www.w3.org/2000/svg">
  <defs>
    <linearGradient id="bg" x1="80" y1="30" x2="1110" y2="600" gradientUnits="userSpaceOnUse">
      <stop stop-color="#071C28"/>
      <stop offset="0.52" stop-color="#10243D"/>
      <stop offset="1" stop-color="#25184B"/>
    </linearGradient>
    <linearGradient id="accent" x1="370" y1="170" x2="830" y2="500" gradientUnits="userSpaceOnUse">
      <stop stop-color="#08D9F5"/>
      <stop offset="1" stop-color="#7657F5"/>
    </linearGradient>
    <filter id="glow" x="-100%" y="-100%" width="300%" height="300%">
      <feGaussianBlur stdDeviation="18"/>
    </filter>
  </defs>
  <rect width="1200" height="630" rx="36" fill="url(#bg)"/>
  <circle cx="175" cy="82" r="150" fill="#08D9F5" fill-opacity="0.12" filter="url(#glow)"/>
  <circle cx="1040" cy="555" r="190" fill="#7657F5" fill-opacity="0.16" filter="url(#glow)"/>
  <rect x="305" y="105" width="590" height="430" rx="34" fill="#0B1726" fill-opacity="0.92" stroke="url(#accent)" stroke-width="3"/>
  <rect x="400" y="78" width="400" height="86" rx="28" fill="#12253A" stroke="#08D9F5" stroke-width="3"/>
  <rect x="462" y="108" width="276" height="25" rx="12.5" fill="url(#accent)"/>
  <rect x="370" y="215" width="50" height="50" rx="13" fill="#08D9F5" fill-opacity="0.15" stroke="#08D9F5" stroke-width="3"/>
  <path d="M385 240L397 251L415 226" stroke="#08D9F5" stroke-width="7" stroke-linecap="round" stroke-linejoin="round"/>
  <rect x="455" y="222" width="300" height="14" rx="7" fill="#E8F6FA" fill-opacity="0.9"/>
  <rect x="455" y="247" width="220" height="11" rx="5.5" fill="#8097A8" fill-opacity="0.72"/>
  <rect x="370" y="305" width="50" height="50" rx="13" fill="#7657F5" fill-opacity="0.15" stroke="#7657F5" stroke-width="3"/>
  <path d="M385 330L397 341L415 316" stroke="#9B87FA" stroke-width="7" stroke-linecap="round" stroke-linejoin="round"/>
  <rect x="455" y="312" width="350" height="14" rx="7" fill="#E8F6FA" fill-opacity="0.9"/>
  <rect x="455" y="337" width="260" height="11" rx="5.5" fill="#8097A8" fill-opacity="0.72"/>
  <rect x="370" y="395" width="50" height="50" rx="13" fill="#08D9F5" fill-opacity="0.15" stroke="#08D9F5" stroke-width="3"/>
  <path d="M385 420L397 431L415 406" stroke="#08D9F5" stroke-width="7" stroke-linecap="round" stroke-linejoin="round"/>
  <rect x="455" y="402" width="275" height="14" rx="7" fill="#E8F6FA" fill-opacity="0.9"/>
  <rect x="455" y="427" width="320" height="11" rx="5.5" fill="#8097A8" fill-opacity="0.72"/>
  <circle cx="823" cy="448" r="69" fill="#10263A" stroke="url(#accent)" stroke-width="10"/>
  <path d="M823 379A69 69 0 0 1 889 428" stroke="#08D9F5" stroke-width="10" stroke-linecap="round"/>
  <text x="823" y="460" text-anchor="middle" fill="#F4FCFF" font-family="Arial, sans-serif" font-size="34" font-weight="700">92%</text>
  <text x="600" y="590" text-anchor="middle" fill="#DDF9FF" font-family="Arial, sans-serif" font-size="30" font-weight="700" letter-spacing="3">AUDITORÍA INTERNA</text>
</svg>
